<mxfile host="app.diagrams.net" modified="2024-01-21T14:26:15.194Z" agent="Mozilla/5.0 (Windows NT 10.0; Win64; x64) AppleWebKit/537.36 (KHTML, like Gecko) Chrome/120.0.0.0 Safari/537.36 OPR/106.0.0.0" etag="SfUHnzDHIBj3pZl0do8X" version="22.1.21" type="device">
  <diagram id="R2lEEEUBdFMjLlhIrx00" name="Page-1">
    <mxGraphModel dx="1222" dy="673" grid="1" gridSize="10" guides="1" tooltips="1" connect="1" arrows="1" fold="1" page="1" pageScale="1" pageWidth="850" pageHeight="1100" math="0" shadow="0" extFonts="Permanent Marker^https://fonts.googleapis.com/css?family=Permanent+Marker">
      <root>
        <mxCell id="0" />
        <mxCell id="1" parent="0" />
        <mxCell id="C-2Z8SM-Xwla9t9jX8n9-1" value="wartosc" style="ellipse;whiteSpace=wrap;html=1;fillColor=#d5e8d4;strokeColor=#82b366;" parent="1" vertex="1">
          <mxGeometry x="260" y="90" width="80" height="40" as="geometry" />
        </mxCell>
        <mxCell id="C-2Z8SM-Xwla9t9jX8n9-2" value="koszyk" style="rounded=0;whiteSpace=wrap;html=1;fillColor=#dae8fc;strokeColor=#6c8ebf;" parent="1" vertex="1">
          <mxGeometry x="300" y="140" width="80" height="40" as="geometry" />
        </mxCell>
        <mxCell id="C-2Z8SM-Xwla9t9jX8n9-3" value="ilosc" style="ellipse;whiteSpace=wrap;html=1;fillColor=#d5e8d4;strokeColor=#82b366;" parent="1" vertex="1">
          <mxGeometry x="355" y="90" width="80" height="40" as="geometry" />
        </mxCell>
        <mxCell id="C-2Z8SM-Xwla9t9jX8n9-6" value="" style="endArrow=none;html=1;rounded=0;" parent="1" source="C-2Z8SM-Xwla9t9jX8n9-2" target="C-2Z8SM-Xwla9t9jX8n9-3" edge="1">
          <mxGeometry relative="1" as="geometry">
            <mxPoint x="220" y="170" as="sourcePoint" />
            <mxPoint x="380" y="170" as="targetPoint" />
          </mxGeometry>
        </mxCell>
        <mxCell id="C-2Z8SM-Xwla9t9jX8n9-7" value="" style="endArrow=none;html=1;rounded=0;" parent="1" source="C-2Z8SM-Xwla9t9jX8n9-1" target="C-2Z8SM-Xwla9t9jX8n9-2" edge="1">
          <mxGeometry relative="1" as="geometry">
            <mxPoint x="180" y="250" as="sourcePoint" />
            <mxPoint x="340" y="250" as="targetPoint" />
          </mxGeometry>
        </mxCell>
        <mxCell id="C-2Z8SM-Xwla9t9jX8n9-8" value="opinia" style="rounded=0;whiteSpace=wrap;html=1;fillColor=#dae8fc;strokeColor=#6c8ebf;" parent="1" vertex="1">
          <mxGeometry x="550" y="50" width="80" height="40" as="geometry" />
        </mxCell>
        <mxCell id="C-2Z8SM-Xwla9t9jX8n9-9" value="data_wystawienia" style="ellipse;whiteSpace=wrap;html=1;fillColor=#d5e8d4;strokeColor=#82b366;" parent="1" vertex="1">
          <mxGeometry x="455" y="110" width="110" height="40" as="geometry" />
        </mxCell>
        <mxCell id="C-2Z8SM-Xwla9t9jX8n9-10" value="tresc" style="ellipse;whiteSpace=wrap;html=1;fillColor=#d5e8d4;strokeColor=#82b366;" parent="1" vertex="1">
          <mxGeometry x="615" y="110" width="80" height="40" as="geometry" />
        </mxCell>
        <mxCell id="C-2Z8SM-Xwla9t9jX8n9-11" value="" style="endArrow=none;html=1;rounded=0;" parent="1" source="C-2Z8SM-Xwla9t9jX8n9-9" target="C-2Z8SM-Xwla9t9jX8n9-8" edge="1">
          <mxGeometry relative="1" as="geometry">
            <mxPoint x="320" y="200" as="sourcePoint" />
            <mxPoint x="480" y="200" as="targetPoint" />
          </mxGeometry>
        </mxCell>
        <mxCell id="C-2Z8SM-Xwla9t9jX8n9-12" value="" style="endArrow=none;html=1;rounded=0;" parent="1" source="C-2Z8SM-Xwla9t9jX8n9-8" target="C-2Z8SM-Xwla9t9jX8n9-10" edge="1">
          <mxGeometry relative="1" as="geometry">
            <mxPoint x="410" y="240" as="sourcePoint" />
            <mxPoint x="570" y="240" as="targetPoint" />
          </mxGeometry>
        </mxCell>
        <mxCell id="C-2Z8SM-Xwla9t9jX8n9-13" value="produkt" style="rounded=0;whiteSpace=wrap;html=1;fillColor=#dae8fc;strokeColor=#6c8ebf;" parent="1" vertex="1">
          <mxGeometry x="470" y="240" width="80" height="40" as="geometry" />
        </mxCell>
        <mxCell id="C-2Z8SM-Xwla9t9jX8n9-14" value="producent" style="rounded=0;whiteSpace=wrap;html=1;fillColor=#dae8fc;strokeColor=#6c8ebf;" parent="1" vertex="1">
          <mxGeometry x="690" y="210" width="80" height="40" as="geometry" />
        </mxCell>
        <mxCell id="C-2Z8SM-Xwla9t9jX8n9-15" value="zamowienie" style="rounded=0;whiteSpace=wrap;html=1;fillColor=#dae8fc;strokeColor=#6c8ebf;" parent="1" vertex="1">
          <mxGeometry x="160" y="330" width="80" height="40" as="geometry" />
        </mxCell>
        <mxCell id="C-2Z8SM-Xwla9t9jX8n9-16" value="gwarancja" style="rounded=0;whiteSpace=wrap;html=1;fillColor=#dae8fc;strokeColor=#6c8ebf;" parent="1" vertex="1">
          <mxGeometry x="420" y="390" width="80" height="40" as="geometry" />
        </mxCell>
        <mxCell id="C-2Z8SM-Xwla9t9jX8n9-17" value="kategoria" style="rounded=0;whiteSpace=wrap;html=1;fillColor=#dae8fc;strokeColor=#6c8ebf;" parent="1" vertex="1">
          <mxGeometry x="690" y="290" width="80" height="40" as="geometry" />
        </mxCell>
        <mxCell id="C-2Z8SM-Xwla9t9jX8n9-18" value="faktura" style="rounded=0;whiteSpace=wrap;html=1;fillColor=#dae8fc;strokeColor=#6c8ebf;" parent="1" vertex="1">
          <mxGeometry x="430" y="600" width="80" height="40" as="geometry" />
        </mxCell>
        <mxCell id="C-2Z8SM-Xwla9t9jX8n9-19" value="klient" style="rounded=0;whiteSpace=wrap;html=1;fillColor=#dae8fc;strokeColor=#6c8ebf;" parent="1" vertex="1">
          <mxGeometry x="130" y="600" width="80" height="40" as="geometry" />
        </mxCell>
        <mxCell id="C-2Z8SM-Xwla9t9jX8n9-20" value="platnosc" style="rounded=0;whiteSpace=wrap;html=1;fillColor=#dae8fc;strokeColor=#6c8ebf;" parent="1" vertex="1">
          <mxGeometry x="107.5" y="210" width="80" height="40" as="geometry" />
        </mxCell>
        <mxCell id="C-2Z8SM-Xwla9t9jX8n9-21" value="adres" style="rounded=0;whiteSpace=wrap;html=1;fillColor=#dae8fc;strokeColor=#6c8ebf;" parent="1" vertex="1">
          <mxGeometry x="157.5" y="840" width="80" height="40" as="geometry" />
        </mxCell>
        <mxCell id="C-2Z8SM-Xwla9t9jX8n9-22" value="kontakt" style="rounded=0;whiteSpace=wrap;html=1;fillColor=#dae8fc;strokeColor=#6c8ebf;" parent="1" vertex="1">
          <mxGeometry x="375" y="950" width="80" height="40" as="geometry" />
        </mxCell>
        <mxCell id="C-2Z8SM-Xwla9t9jX8n9-23" value="pracownik" style="rounded=0;whiteSpace=wrap;html=1;fillColor=#dae8fc;strokeColor=#6c8ebf;" parent="1" vertex="1">
          <mxGeometry x="550" y="850" width="80" height="40" as="geometry" />
        </mxCell>
        <mxCell id="C-2Z8SM-Xwla9t9jX8n9-24" value="" style="fontSize=12;html=1;endArrow=ERmandOne;startArrow=ERmandOne;rounded=0;exitX=0.609;exitY=-0.059;exitDx=0;exitDy=0;exitPerimeter=0;edgeStyle=orthogonalEdgeStyle;" parent="1" source="C-2Z8SM-Xwla9t9jX8n9-16" target="C-2Z8SM-Xwla9t9jX8n9-13" edge="1">
          <mxGeometry width="100" height="100" relative="1" as="geometry">
            <mxPoint x="360" y="390" as="sourcePoint" />
            <mxPoint x="360" y="310" as="targetPoint" />
            <Array as="points">
              <mxPoint x="469" y="335" />
              <mxPoint x="510" y="335" />
            </Array>
          </mxGeometry>
        </mxCell>
        <mxCell id="C-2Z8SM-Xwla9t9jX8n9-25" value="nazwa" style="ellipse;whiteSpace=wrap;html=1;fillColor=#d5e8d4;strokeColor=#82b366;" parent="1" vertex="1">
          <mxGeometry x="355" y="210" width="80" height="40" as="geometry" />
        </mxCell>
        <mxCell id="C-2Z8SM-Xwla9t9jX8n9-27" value="cena_netto" style="ellipse;whiteSpace=wrap;html=1;fillColor=#d5e8d4;strokeColor=#82b366;" parent="1" vertex="1">
          <mxGeometry x="375" y="310" width="80" height="40" as="geometry" />
        </mxCell>
        <mxCell id="C-2Z8SM-Xwla9t9jX8n9-28" value="cena_brutto" style="ellipse;whiteSpace=wrap;html=1;fillColor=#d5e8d4;strokeColor=#82b366;" parent="1" vertex="1">
          <mxGeometry x="540" y="370" width="80" height="40" as="geometry" />
        </mxCell>
        <mxCell id="C-2Z8SM-Xwla9t9jX8n9-29" value="vat_id" style="ellipse;whiteSpace=wrap;html=1;fillColor=#d5e8d4;strokeColor=#82b366;" parent="1" vertex="1">
          <mxGeometry x="600" y="330" width="80" height="40" as="geometry" />
        </mxCell>
        <mxCell id="C-2Z8SM-Xwla9t9jX8n9-31" value="opis" style="ellipse;whiteSpace=wrap;html=1;fillColor=#d5e8d4;strokeColor=#82b366;" parent="1" vertex="1">
          <mxGeometry x="420" y="160" width="80" height="40" as="geometry" />
        </mxCell>
        <mxCell id="C-2Z8SM-Xwla9t9jX8n9-32" value="" style="endArrow=none;html=1;rounded=0;" parent="1" source="C-2Z8SM-Xwla9t9jX8n9-27" target="C-2Z8SM-Xwla9t9jX8n9-13" edge="1">
          <mxGeometry relative="1" as="geometry">
            <mxPoint x="180" y="380" as="sourcePoint" />
            <mxPoint x="340" y="380" as="targetPoint" />
          </mxGeometry>
        </mxCell>
        <mxCell id="C-2Z8SM-Xwla9t9jX8n9-34" value="" style="endArrow=none;html=1;rounded=0;" parent="1" source="C-2Z8SM-Xwla9t9jX8n9-25" target="C-2Z8SM-Xwla9t9jX8n9-13" edge="1">
          <mxGeometry relative="1" as="geometry">
            <mxPoint x="180" y="370" as="sourcePoint" />
            <mxPoint x="340" y="370" as="targetPoint" />
          </mxGeometry>
        </mxCell>
        <mxCell id="C-2Z8SM-Xwla9t9jX8n9-35" value="" style="endArrow=none;html=1;rounded=0;" parent="1" source="C-2Z8SM-Xwla9t9jX8n9-13" target="C-2Z8SM-Xwla9t9jX8n9-31" edge="1">
          <mxGeometry relative="1" as="geometry">
            <mxPoint x="390" y="240" as="sourcePoint" />
            <mxPoint x="550" y="240" as="targetPoint" />
          </mxGeometry>
        </mxCell>
        <mxCell id="C-2Z8SM-Xwla9t9jX8n9-37" value="" style="endArrow=none;html=1;rounded=0;" parent="1" source="C-2Z8SM-Xwla9t9jX8n9-13" target="C-2Z8SM-Xwla9t9jX8n9-29" edge="1">
          <mxGeometry relative="1" as="geometry">
            <mxPoint x="450" y="300" as="sourcePoint" />
            <mxPoint x="610" y="300" as="targetPoint" />
          </mxGeometry>
        </mxCell>
        <mxCell id="C-2Z8SM-Xwla9t9jX8n9-38" value="" style="endArrow=none;html=1;rounded=0;" parent="1" source="C-2Z8SM-Xwla9t9jX8n9-13" target="C-2Z8SM-Xwla9t9jX8n9-28" edge="1">
          <mxGeometry relative="1" as="geometry">
            <mxPoint x="480" y="360" as="sourcePoint" />
            <mxPoint x="640" y="360" as="targetPoint" />
          </mxGeometry>
        </mxCell>
        <mxCell id="C-2Z8SM-Xwla9t9jX8n9-39" value="nazwa_producenta" style="ellipse;whiteSpace=wrap;html=1;fillColor=#d5e8d4;strokeColor=#82b366;" parent="1" vertex="1">
          <mxGeometry x="680" y="150" width="110" height="40" as="geometry" />
        </mxCell>
        <mxCell id="C-2Z8SM-Xwla9t9jX8n9-40" value="" style="endArrow=none;html=1;rounded=0;" parent="1" source="C-2Z8SM-Xwla9t9jX8n9-14" target="C-2Z8SM-Xwla9t9jX8n9-39" edge="1">
          <mxGeometry relative="1" as="geometry">
            <mxPoint x="600" y="220" as="sourcePoint" />
            <mxPoint x="760" y="220" as="targetPoint" />
          </mxGeometry>
        </mxCell>
        <mxCell id="C-2Z8SM-Xwla9t9jX8n9-41" value="nazwa" style="ellipse;whiteSpace=wrap;html=1;fillColor=#d5e8d4;strokeColor=#82b366;" parent="1" vertex="1">
          <mxGeometry x="695" y="360" width="80" height="40" as="geometry" />
        </mxCell>
        <mxCell id="C-2Z8SM-Xwla9t9jX8n9-42" value="" style="endArrow=none;html=1;rounded=0;" parent="1" source="C-2Z8SM-Xwla9t9jX8n9-41" target="C-2Z8SM-Xwla9t9jX8n9-17" edge="1">
          <mxGeometry relative="1" as="geometry">
            <mxPoint x="660" y="350" as="sourcePoint" />
            <mxPoint x="820" y="350" as="targetPoint" />
          </mxGeometry>
        </mxCell>
        <mxCell id="C-2Z8SM-Xwla9t9jX8n9-43" value="data_zamowienia" style="ellipse;whiteSpace=wrap;html=1;fillColor=#d5e8d4;strokeColor=#82b366;" parent="1" vertex="1">
          <mxGeometry x="95" y="270" width="110" height="40" as="geometry" />
        </mxCell>
        <mxCell id="C-2Z8SM-Xwla9t9jX8n9-44" value="data_przyjecia" style="ellipse;whiteSpace=wrap;html=1;fillColor=#d5e8d4;strokeColor=#82b366;" parent="1" vertex="1">
          <mxGeometry x="55" y="330" width="90" height="40" as="geometry" />
        </mxCell>
        <mxCell id="C-2Z8SM-Xwla9t9jX8n9-45" value="czy_zrealizowano" style="ellipse;whiteSpace=wrap;html=1;fillColor=#d5e8d4;strokeColor=#82b366;" parent="1" vertex="1">
          <mxGeometry x="65" y="390" width="105" height="40" as="geometry" />
        </mxCell>
        <mxCell id="C-2Z8SM-Xwla9t9jX8n9-46" value="data_wysylki" style="ellipse;whiteSpace=wrap;html=1;fillColor=#d5e8d4;strokeColor=#82b366;" parent="1" vertex="1">
          <mxGeometry x="220" y="430" width="80" height="40" as="geometry" />
        </mxCell>
        <mxCell id="C-2Z8SM-Xwla9t9jX8n9-47" value="data_realizacji" style="ellipse;whiteSpace=wrap;html=1;fillColor=#d5e8d4;strokeColor=#82b366;" parent="1" vertex="1">
          <mxGeometry x="280" y="380" width="90" height="40" as="geometry" />
        </mxCell>
        <mxCell id="C-2Z8SM-Xwla9t9jX8n9-51" value="" style="endArrow=none;html=1;rounded=0;" parent="1" source="C-2Z8SM-Xwla9t9jX8n9-44" target="C-2Z8SM-Xwla9t9jX8n9-15" edge="1">
          <mxGeometry relative="1" as="geometry">
            <mxPoint x="70" y="270" as="sourcePoint" />
            <mxPoint x="230" y="270" as="targetPoint" />
          </mxGeometry>
        </mxCell>
        <mxCell id="C-2Z8SM-Xwla9t9jX8n9-52" value="" style="endArrow=none;html=1;rounded=0;" parent="1" source="C-2Z8SM-Xwla9t9jX8n9-43" target="C-2Z8SM-Xwla9t9jX8n9-15" edge="1">
          <mxGeometry relative="1" as="geometry">
            <mxPoint x="60" y="280" as="sourcePoint" />
            <mxPoint x="220" y="280" as="targetPoint" />
          </mxGeometry>
        </mxCell>
        <mxCell id="C-2Z8SM-Xwla9t9jX8n9-53" value="" style="endArrow=none;html=1;rounded=0;" parent="1" source="C-2Z8SM-Xwla9t9jX8n9-45" target="C-2Z8SM-Xwla9t9jX8n9-15" edge="1">
          <mxGeometry relative="1" as="geometry">
            <mxPoint x="40" y="460" as="sourcePoint" />
            <mxPoint x="200" y="460" as="targetPoint" />
          </mxGeometry>
        </mxCell>
        <mxCell id="C-2Z8SM-Xwla9t9jX8n9-54" value="" style="endArrow=none;html=1;rounded=0;" parent="1" source="C-2Z8SM-Xwla9t9jX8n9-46" target="C-2Z8SM-Xwla9t9jX8n9-15" edge="1">
          <mxGeometry relative="1" as="geometry">
            <mxPoint x="100" y="470" as="sourcePoint" />
            <mxPoint x="260" y="470" as="targetPoint" />
          </mxGeometry>
        </mxCell>
        <mxCell id="C-2Z8SM-Xwla9t9jX8n9-55" value="" style="endArrow=none;html=1;rounded=0;" parent="1" source="C-2Z8SM-Xwla9t9jX8n9-15" target="C-2Z8SM-Xwla9t9jX8n9-47" edge="1">
          <mxGeometry relative="1" as="geometry">
            <mxPoint x="100" y="520" as="sourcePoint" />
            <mxPoint x="260" y="520" as="targetPoint" />
          </mxGeometry>
        </mxCell>
        <mxCell id="C-2Z8SM-Xwla9t9jX8n9-56" value="data_kupna" style="ellipse;whiteSpace=wrap;html=1;fillColor=#d5e8d4;strokeColor=#82b366;" parent="1" vertex="1">
          <mxGeometry x="370" y="450" width="80" height="40" as="geometry" />
        </mxCell>
        <mxCell id="C-2Z8SM-Xwla9t9jX8n9-57" value="data_gwarancji" style="ellipse;whiteSpace=wrap;html=1;fillColor=#d5e8d4;strokeColor=#82b366;" parent="1" vertex="1">
          <mxGeometry x="470" y="460" width="100" height="40" as="geometry" />
        </mxCell>
        <mxCell id="C-2Z8SM-Xwla9t9jX8n9-58" value="" style="endArrow=none;html=1;rounded=0;" parent="1" source="C-2Z8SM-Xwla9t9jX8n9-56" target="C-2Z8SM-Xwla9t9jX8n9-16" edge="1">
          <mxGeometry relative="1" as="geometry">
            <mxPoint x="340" y="540" as="sourcePoint" />
            <mxPoint x="500" y="540" as="targetPoint" />
          </mxGeometry>
        </mxCell>
        <mxCell id="C-2Z8SM-Xwla9t9jX8n9-59" value="" style="endArrow=none;html=1;rounded=0;" parent="1" source="C-2Z8SM-Xwla9t9jX8n9-57" target="C-2Z8SM-Xwla9t9jX8n9-16" edge="1">
          <mxGeometry relative="1" as="geometry">
            <mxPoint x="450" y="550" as="sourcePoint" />
            <mxPoint x="610" y="550" as="targetPoint" />
          </mxGeometry>
        </mxCell>
        <mxCell id="C-2Z8SM-Xwla9t9jX8n9-60" value="rodzaj_platnosci" style="ellipse;whiteSpace=wrap;html=1;fillColor=#d5e8d4;strokeColor=#82b366;" parent="1" vertex="1">
          <mxGeometry x="95" y="140" width="100" height="40" as="geometry" />
        </mxCell>
        <mxCell id="C-2Z8SM-Xwla9t9jX8n9-62" value="" style="endArrow=none;html=1;rounded=0;" parent="1" source="C-2Z8SM-Xwla9t9jX8n9-20" target="C-2Z8SM-Xwla9t9jX8n9-60" edge="1">
          <mxGeometry relative="1" as="geometry">
            <mxPoint x="550" y="560" as="sourcePoint" />
            <mxPoint x="710" y="560" as="targetPoint" />
          </mxGeometry>
        </mxCell>
        <mxCell id="C-2Z8SM-Xwla9t9jX8n9-65" value="login" style="ellipse;whiteSpace=wrap;html=1;fillColor=#d5e8d4;strokeColor=#82b366;" parent="1" vertex="1">
          <mxGeometry x="195" y="500" width="80" height="40" as="geometry" />
        </mxCell>
        <mxCell id="C-2Z8SM-Xwla9t9jX8n9-66" value="md5_haslo" style="ellipse;whiteSpace=wrap;html=1;fillColor=#d5e8d4;strokeColor=#82b366;" parent="1" vertex="1">
          <mxGeometry x="240" y="550" width="80" height="40" as="geometry" />
        </mxCell>
        <mxCell id="C-2Z8SM-Xwla9t9jX8n9-67" value="nazwa_firmy" style="ellipse;whiteSpace=wrap;html=1;fillColor=#d5e8d4;strokeColor=#82b366;" parent="1" vertex="1">
          <mxGeometry x="220" y="690" width="80" height="40" as="geometry" />
        </mxCell>
        <mxCell id="C-2Z8SM-Xwla9t9jX8n9-68" value="regon" style="ellipse;whiteSpace=wrap;html=1;fillColor=#d5e8d4;strokeColor=#82b366;" parent="1" vertex="1">
          <mxGeometry x="80" y="670" width="80" height="40" as="geometry" />
        </mxCell>
        <mxCell id="C-2Z8SM-Xwla9t9jX8n9-69" value="nip" style="ellipse;whiteSpace=wrap;html=1;fillColor=#d5e8d4;strokeColor=#82b366;" parent="1" vertex="1">
          <mxGeometry x="10" y="640" width="80" height="40" as="geometry" />
        </mxCell>
        <mxCell id="C-2Z8SM-Xwla9t9jX8n9-70" value="nazwisko" style="ellipse;whiteSpace=wrap;html=1;fillColor=#d5e8d4;strokeColor=#82b366;" parent="1" vertex="1">
          <mxGeometry x="40" y="550" width="80" height="40" as="geometry" />
        </mxCell>
        <mxCell id="C-2Z8SM-Xwla9t9jX8n9-71" value="imie" style="ellipse;whiteSpace=wrap;html=1;fillColor=#d5e8d4;strokeColor=#82b366;" parent="1" vertex="1">
          <mxGeometry x="77.5" y="500" width="80" height="40" as="geometry" />
        </mxCell>
        <mxCell id="C-2Z8SM-Xwla9t9jX8n9-72" value="" style="endArrow=none;html=1;rounded=0;" parent="1" source="C-2Z8SM-Xwla9t9jX8n9-19" target="C-2Z8SM-Xwla9t9jX8n9-68" edge="1">
          <mxGeometry relative="1" as="geometry">
            <mxPoint x="10" y="740" as="sourcePoint" />
            <mxPoint x="170" y="740" as="targetPoint" />
          </mxGeometry>
        </mxCell>
        <mxCell id="C-2Z8SM-Xwla9t9jX8n9-73" value="" style="endArrow=none;html=1;rounded=0;" parent="1" source="C-2Z8SM-Xwla9t9jX8n9-69" target="C-2Z8SM-Xwla9t9jX8n9-19" edge="1">
          <mxGeometry relative="1" as="geometry">
            <mxPoint x="20" y="770" as="sourcePoint" />
            <mxPoint x="180" y="770" as="targetPoint" />
          </mxGeometry>
        </mxCell>
        <mxCell id="C-2Z8SM-Xwla9t9jX8n9-74" value="" style="endArrow=none;html=1;rounded=0;" parent="1" source="C-2Z8SM-Xwla9t9jX8n9-70" target="C-2Z8SM-Xwla9t9jX8n9-19" edge="1">
          <mxGeometry relative="1" as="geometry">
            <mxPoint x="70" y="760" as="sourcePoint" />
            <mxPoint x="230" y="760" as="targetPoint" />
          </mxGeometry>
        </mxCell>
        <mxCell id="C-2Z8SM-Xwla9t9jX8n9-75" value="" style="endArrow=none;html=1;rounded=0;" parent="1" source="C-2Z8SM-Xwla9t9jX8n9-71" target="C-2Z8SM-Xwla9t9jX8n9-19" edge="1">
          <mxGeometry relative="1" as="geometry">
            <mxPoint x="110" y="760" as="sourcePoint" />
            <mxPoint x="270" y="760" as="targetPoint" />
          </mxGeometry>
        </mxCell>
        <mxCell id="C-2Z8SM-Xwla9t9jX8n9-76" value="" style="endArrow=none;html=1;rounded=0;" parent="1" source="C-2Z8SM-Xwla9t9jX8n9-19" target="C-2Z8SM-Xwla9t9jX8n9-67" edge="1">
          <mxGeometry relative="1" as="geometry">
            <mxPoint x="210" y="790" as="sourcePoint" />
            <mxPoint x="370" y="790" as="targetPoint" />
          </mxGeometry>
        </mxCell>
        <mxCell id="C-2Z8SM-Xwla9t9jX8n9-77" value="" style="endArrow=none;html=1;rounded=0;" parent="1" source="C-2Z8SM-Xwla9t9jX8n9-19" target="C-2Z8SM-Xwla9t9jX8n9-66" edge="1">
          <mxGeometry relative="1" as="geometry">
            <mxPoint x="170" y="770" as="sourcePoint" />
            <mxPoint x="330" y="770" as="targetPoint" />
          </mxGeometry>
        </mxCell>
        <mxCell id="C-2Z8SM-Xwla9t9jX8n9-78" value="" style="endArrow=none;html=1;rounded=0;" parent="1" source="C-2Z8SM-Xwla9t9jX8n9-19" target="C-2Z8SM-Xwla9t9jX8n9-65" edge="1">
          <mxGeometry relative="1" as="geometry">
            <mxPoint x="180" y="770" as="sourcePoint" />
            <mxPoint x="340" y="770" as="targetPoint" />
          </mxGeometry>
        </mxCell>
        <mxCell id="C-2Z8SM-Xwla9t9jX8n9-79" value="data_sprzedazy" style="ellipse;whiteSpace=wrap;html=1;fillColor=#d5e8d4;strokeColor=#82b366;" parent="1" vertex="1">
          <mxGeometry x="370" y="540" width="100" height="40" as="geometry" />
        </mxCell>
        <mxCell id="C-2Z8SM-Xwla9t9jX8n9-80" value="wartosc_netto" style="ellipse;whiteSpace=wrap;html=1;fillColor=#d5e8d4;strokeColor=#82b366;" parent="1" vertex="1">
          <mxGeometry x="490" y="540" width="90" height="40" as="geometry" />
        </mxCell>
        <mxCell id="C-2Z8SM-Xwla9t9jX8n9-81" value="wartosc_brutto" style="ellipse;whiteSpace=wrap;html=1;fillColor=#d5e8d4;strokeColor=#82b366;" parent="1" vertex="1">
          <mxGeometry x="535" y="610" width="90" height="40" as="geometry" />
        </mxCell>
        <mxCell id="C-2Z8SM-Xwla9t9jX8n9-82" value="forma_platnosci" style="ellipse;whiteSpace=wrap;html=1;fillColor=#d5e8d4;strokeColor=#82b366;" parent="1" vertex="1">
          <mxGeometry x="495" y="660" width="100" height="40" as="geometry" />
        </mxCell>
        <mxCell id="C-2Z8SM-Xwla9t9jX8n9-83" value="rodzaj_dokumentu" style="ellipse;whiteSpace=wrap;html=1;fillColor=#d5e8d4;strokeColor=#82b366;" parent="1" vertex="1">
          <mxGeometry x="365" y="660" width="120" height="40" as="geometry" />
        </mxCell>
        <mxCell id="C-2Z8SM-Xwla9t9jX8n9-84" value="" style="endArrow=none;html=1;rounded=0;" parent="1" source="C-2Z8SM-Xwla9t9jX8n9-79" target="C-2Z8SM-Xwla9t9jX8n9-18" edge="1">
          <mxGeometry relative="1" as="geometry">
            <mxPoint x="330" y="750" as="sourcePoint" />
            <mxPoint x="490" y="750" as="targetPoint" />
          </mxGeometry>
        </mxCell>
        <mxCell id="C-2Z8SM-Xwla9t9jX8n9-85" value="" style="endArrow=none;html=1;rounded=0;" parent="1" source="C-2Z8SM-Xwla9t9jX8n9-18" target="C-2Z8SM-Xwla9t9jX8n9-80" edge="1">
          <mxGeometry relative="1" as="geometry">
            <mxPoint x="440" y="750" as="sourcePoint" />
            <mxPoint x="600" y="750" as="targetPoint" />
          </mxGeometry>
        </mxCell>
        <mxCell id="C-2Z8SM-Xwla9t9jX8n9-86" value="" style="endArrow=none;html=1;rounded=0;" parent="1" source="C-2Z8SM-Xwla9t9jX8n9-18" target="C-2Z8SM-Xwla9t9jX8n9-81" edge="1">
          <mxGeometry relative="1" as="geometry">
            <mxPoint x="500" y="780" as="sourcePoint" />
            <mxPoint x="660" y="780" as="targetPoint" />
          </mxGeometry>
        </mxCell>
        <mxCell id="C-2Z8SM-Xwla9t9jX8n9-87" value="" style="endArrow=none;html=1;rounded=0;" parent="1" source="C-2Z8SM-Xwla9t9jX8n9-18" target="C-2Z8SM-Xwla9t9jX8n9-82" edge="1">
          <mxGeometry relative="1" as="geometry">
            <mxPoint x="460" y="760" as="sourcePoint" />
            <mxPoint x="620" y="760" as="targetPoint" />
          </mxGeometry>
        </mxCell>
        <mxCell id="C-2Z8SM-Xwla9t9jX8n9-88" value="" style="endArrow=none;html=1;rounded=0;" parent="1" source="C-2Z8SM-Xwla9t9jX8n9-83" target="C-2Z8SM-Xwla9t9jX8n9-18" edge="1">
          <mxGeometry relative="1" as="geometry">
            <mxPoint x="410" y="770" as="sourcePoint" />
            <mxPoint x="570" y="770" as="targetPoint" />
          </mxGeometry>
        </mxCell>
        <mxCell id="C-2Z8SM-Xwla9t9jX8n9-89" value="login" style="ellipse;whiteSpace=wrap;html=1;fillColor=#d5e8d4;strokeColor=#82b366;" parent="1" vertex="1">
          <mxGeometry x="535" y="760" width="80" height="40" as="geometry" />
        </mxCell>
        <mxCell id="C-2Z8SM-Xwla9t9jX8n9-90" value="md5_haslo" style="ellipse;whiteSpace=wrap;html=1;fillColor=#d5e8d4;strokeColor=#82b366;" parent="1" vertex="1">
          <mxGeometry x="630" y="770" width="80" height="40" as="geometry" />
        </mxCell>
        <mxCell id="C-2Z8SM-Xwla9t9jX8n9-91" value="imie" style="ellipse;whiteSpace=wrap;html=1;fillColor=#d5e8d4;strokeColor=#82b366;" parent="1" vertex="1">
          <mxGeometry x="690" y="820" width="80" height="40" as="geometry" />
        </mxCell>
        <mxCell id="C-2Z8SM-Xwla9t9jX8n9-92" value="nazwisko" style="ellipse;whiteSpace=wrap;html=1;fillColor=#d5e8d4;strokeColor=#82b366;" parent="1" vertex="1">
          <mxGeometry x="690" y="880" width="80" height="40" as="geometry" />
        </mxCell>
        <mxCell id="C-2Z8SM-Xwla9t9jX8n9-93" value="konto_aktywne" style="ellipse;whiteSpace=wrap;html=1;fillColor=#d5e8d4;strokeColor=#82b366;" parent="1" vertex="1">
          <mxGeometry x="645" y="940" width="90" height="40" as="geometry" />
        </mxCell>
        <mxCell id="C-2Z8SM-Xwla9t9jX8n9-94" value="data_zatrudnienia" style="ellipse;whiteSpace=wrap;html=1;fillColor=#d5e8d4;strokeColor=#82b366;" parent="1" vertex="1">
          <mxGeometry x="520" y="940" width="110" height="40" as="geometry" />
        </mxCell>
        <mxCell id="C-2Z8SM-Xwla9t9jX8n9-95" value="data_zwolnienia" style="ellipse;whiteSpace=wrap;html=1;fillColor=#d5e8d4;strokeColor=#82b366;" parent="1" vertex="1">
          <mxGeometry x="430" y="790" width="100" height="40" as="geometry" />
        </mxCell>
        <mxCell id="C-2Z8SM-Xwla9t9jX8n9-96" value="" style="endArrow=none;html=1;rounded=0;" parent="1" source="C-2Z8SM-Xwla9t9jX8n9-94" target="C-2Z8SM-Xwla9t9jX8n9-23" edge="1">
          <mxGeometry relative="1" as="geometry">
            <mxPoint x="530" y="1030" as="sourcePoint" />
            <mxPoint x="690" y="1030" as="targetPoint" />
          </mxGeometry>
        </mxCell>
        <mxCell id="C-2Z8SM-Xwla9t9jX8n9-97" value="" style="endArrow=none;html=1;rounded=0;" parent="1" source="C-2Z8SM-Xwla9t9jX8n9-93" target="C-2Z8SM-Xwla9t9jX8n9-23" edge="1">
          <mxGeometry relative="1" as="geometry">
            <mxPoint x="560" y="1030" as="sourcePoint" />
            <mxPoint x="720" y="1030" as="targetPoint" />
          </mxGeometry>
        </mxCell>
        <mxCell id="C-2Z8SM-Xwla9t9jX8n9-98" value="" style="endArrow=none;html=1;rounded=0;" parent="1" source="C-2Z8SM-Xwla9t9jX8n9-23" target="C-2Z8SM-Xwla9t9jX8n9-92" edge="1">
          <mxGeometry relative="1" as="geometry">
            <mxPoint x="650" y="1000" as="sourcePoint" />
            <mxPoint x="810" y="1000" as="targetPoint" />
          </mxGeometry>
        </mxCell>
        <mxCell id="C-2Z8SM-Xwla9t9jX8n9-99" value="" style="endArrow=none;html=1;rounded=0;" parent="1" source="C-2Z8SM-Xwla9t9jX8n9-23" target="C-2Z8SM-Xwla9t9jX8n9-91" edge="1">
          <mxGeometry relative="1" as="geometry">
            <mxPoint x="630" y="1010" as="sourcePoint" />
            <mxPoint x="790" y="1010" as="targetPoint" />
          </mxGeometry>
        </mxCell>
        <mxCell id="C-2Z8SM-Xwla9t9jX8n9-100" value="" style="endArrow=none;html=1;rounded=0;" parent="1" source="C-2Z8SM-Xwla9t9jX8n9-23" target="C-2Z8SM-Xwla9t9jX8n9-90" edge="1">
          <mxGeometry relative="1" as="geometry">
            <mxPoint x="640" y="1010" as="sourcePoint" />
            <mxPoint x="800" y="1010" as="targetPoint" />
          </mxGeometry>
        </mxCell>
        <mxCell id="C-2Z8SM-Xwla9t9jX8n9-101" value="" style="endArrow=none;html=1;rounded=0;" parent="1" source="C-2Z8SM-Xwla9t9jX8n9-23" target="C-2Z8SM-Xwla9t9jX8n9-89" edge="1">
          <mxGeometry relative="1" as="geometry">
            <mxPoint x="610" y="1030" as="sourcePoint" />
            <mxPoint x="770" y="1030" as="targetPoint" />
          </mxGeometry>
        </mxCell>
        <mxCell id="C-2Z8SM-Xwla9t9jX8n9-102" value="" style="endArrow=none;html=1;rounded=0;" parent="1" source="C-2Z8SM-Xwla9t9jX8n9-95" target="C-2Z8SM-Xwla9t9jX8n9-23" edge="1">
          <mxGeometry relative="1" as="geometry">
            <mxPoint x="610" y="1040" as="sourcePoint" />
            <mxPoint x="770" y="1040" as="targetPoint" />
          </mxGeometry>
        </mxCell>
        <mxCell id="C-2Z8SM-Xwla9t9jX8n9-103" value="nr_telefonu" style="ellipse;whiteSpace=wrap;html=1;fillColor=#d5e8d4;strokeColor=#82b366;" parent="1" vertex="1">
          <mxGeometry x="320" y="1010" width="80" height="40" as="geometry" />
        </mxCell>
        <mxCell id="C-2Z8SM-Xwla9t9jX8n9-104" value="email" style="ellipse;whiteSpace=wrap;html=1;fillColor=#d5e8d4;strokeColor=#82b366;" parent="1" vertex="1">
          <mxGeometry x="425" y="1020" width="80" height="40" as="geometry" />
        </mxCell>
        <mxCell id="C-2Z8SM-Xwla9t9jX8n9-105" value="" style="endArrow=none;html=1;rounded=0;" parent="1" source="C-2Z8SM-Xwla9t9jX8n9-103" target="C-2Z8SM-Xwla9t9jX8n9-22" edge="1">
          <mxGeometry relative="1" as="geometry">
            <mxPoint x="230" y="1070" as="sourcePoint" />
            <mxPoint x="390" y="1070" as="targetPoint" />
          </mxGeometry>
        </mxCell>
        <mxCell id="C-2Z8SM-Xwla9t9jX8n9-106" value="" style="endArrow=none;html=1;rounded=0;" parent="1" source="C-2Z8SM-Xwla9t9jX8n9-22" target="C-2Z8SM-Xwla9t9jX8n9-104" edge="1">
          <mxGeometry relative="1" as="geometry">
            <mxPoint x="330" y="1070" as="sourcePoint" />
            <mxPoint x="490" y="1070" as="targetPoint" />
          </mxGeometry>
        </mxCell>
        <mxCell id="C-2Z8SM-Xwla9t9jX8n9-107" value="miasto" style="ellipse;whiteSpace=wrap;html=1;fillColor=#d5e8d4;strokeColor=#82b366;" parent="1" vertex="1">
          <mxGeometry x="30" y="820" width="80" height="40" as="geometry" />
        </mxCell>
        <mxCell id="C-2Z8SM-Xwla9t9jX8n9-108" value="wojewodztwo" style="ellipse;whiteSpace=wrap;html=1;fillColor=#d5e8d4;strokeColor=#82b366;" parent="1" vertex="1">
          <mxGeometry x="125" y="950" width="80" height="40" as="geometry" />
        </mxCell>
        <mxCell id="C-2Z8SM-Xwla9t9jX8n9-109" value="kod_pocztowy" style="ellipse;whiteSpace=wrap;html=1;fillColor=#d5e8d4;strokeColor=#82b366;" parent="1" vertex="1">
          <mxGeometry x="225" y="930" width="95" height="40" as="geometry" />
        </mxCell>
        <mxCell id="C-2Z8SM-Xwla9t9jX8n9-110" value="ulica" style="ellipse;whiteSpace=wrap;html=1;fillColor=#d5e8d4;strokeColor=#82b366;" parent="1" vertex="1">
          <mxGeometry x="260" y="870" width="80" height="40" as="geometry" />
        </mxCell>
        <mxCell id="C-2Z8SM-Xwla9t9jX8n9-111" value="nr_domu" style="ellipse;whiteSpace=wrap;html=1;fillColor=#d5e8d4;strokeColor=#82b366;" parent="1" vertex="1">
          <mxGeometry x="225" y="770" width="80" height="40" as="geometry" />
        </mxCell>
        <mxCell id="C-2Z8SM-Xwla9t9jX8n9-112" value="miejscowosc" style="ellipse;whiteSpace=wrap;html=1;fillColor=#d5e8d4;strokeColor=#82b366;" parent="1" vertex="1">
          <mxGeometry x="40" y="890" width="80" height="40" as="geometry" />
        </mxCell>
        <mxCell id="C-2Z8SM-Xwla9t9jX8n9-113" value="nr_lokalu" style="ellipse;whiteSpace=wrap;html=1;fillColor=#d5e8d4;strokeColor=#82b366;" parent="1" vertex="1">
          <mxGeometry x="77.5" y="760" width="80" height="40" as="geometry" />
        </mxCell>
        <mxCell id="C-2Z8SM-Xwla9t9jX8n9-114" value="" style="endArrow=none;html=1;rounded=0;" parent="1" source="C-2Z8SM-Xwla9t9jX8n9-112" target="C-2Z8SM-Xwla9t9jX8n9-21" edge="1">
          <mxGeometry relative="1" as="geometry">
            <mxPoint x="40" y="1010" as="sourcePoint" />
            <mxPoint x="200" y="1010" as="targetPoint" />
          </mxGeometry>
        </mxCell>
        <mxCell id="C-2Z8SM-Xwla9t9jX8n9-115" value="" style="endArrow=none;html=1;rounded=0;" parent="1" source="C-2Z8SM-Xwla9t9jX8n9-108" target="C-2Z8SM-Xwla9t9jX8n9-21" edge="1">
          <mxGeometry relative="1" as="geometry">
            <mxPoint x="80" y="1000" as="sourcePoint" />
            <mxPoint x="240" y="1000" as="targetPoint" />
          </mxGeometry>
        </mxCell>
        <mxCell id="C-2Z8SM-Xwla9t9jX8n9-116" value="" style="endArrow=none;html=1;rounded=0;" parent="1" source="C-2Z8SM-Xwla9t9jX8n9-21" target="C-2Z8SM-Xwla9t9jX8n9-109" edge="1">
          <mxGeometry relative="1" as="geometry">
            <mxPoint x="70" y="1000" as="sourcePoint" />
            <mxPoint x="230" y="1000" as="targetPoint" />
          </mxGeometry>
        </mxCell>
        <mxCell id="C-2Z8SM-Xwla9t9jX8n9-117" value="" style="endArrow=none;html=1;rounded=0;" parent="1" source="C-2Z8SM-Xwla9t9jX8n9-21" target="C-2Z8SM-Xwla9t9jX8n9-110" edge="1">
          <mxGeometry relative="1" as="geometry">
            <mxPoint x="100" y="990" as="sourcePoint" />
            <mxPoint x="260" y="990" as="targetPoint" />
          </mxGeometry>
        </mxCell>
        <mxCell id="C-2Z8SM-Xwla9t9jX8n9-118" value="" style="endArrow=none;html=1;rounded=0;" parent="1" source="C-2Z8SM-Xwla9t9jX8n9-21" target="C-2Z8SM-Xwla9t9jX8n9-111" edge="1">
          <mxGeometry relative="1" as="geometry">
            <mxPoint x="100" y="990" as="sourcePoint" />
            <mxPoint x="260" y="990" as="targetPoint" />
          </mxGeometry>
        </mxCell>
        <mxCell id="C-2Z8SM-Xwla9t9jX8n9-119" value="" style="endArrow=none;html=1;rounded=0;" parent="1" source="C-2Z8SM-Xwla9t9jX8n9-21" target="C-2Z8SM-Xwla9t9jX8n9-113" edge="1">
          <mxGeometry relative="1" as="geometry">
            <mxPoint x="80" y="1000" as="sourcePoint" />
            <mxPoint x="240" y="1000" as="targetPoint" />
          </mxGeometry>
        </mxCell>
        <mxCell id="C-2Z8SM-Xwla9t9jX8n9-120" value="" style="endArrow=none;html=1;rounded=0;" parent="1" source="C-2Z8SM-Xwla9t9jX8n9-107" target="C-2Z8SM-Xwla9t9jX8n9-21" edge="1">
          <mxGeometry relative="1" as="geometry">
            <mxPoint x="60" y="990" as="sourcePoint" />
            <mxPoint x="220" y="990" as="targetPoint" />
          </mxGeometry>
        </mxCell>
        <mxCell id="C-2Z8SM-Xwla9t9jX8n9-121" value="Sklep internetowy&lt;br&gt;&amp;nbsp;&lt;font style=&quot;font-size: 18px;&quot;&gt;- diagram ERD&lt;/font&gt;" style="text;strokeColor=none;fillColor=none;html=1;fontSize=24;fontStyle=1;verticalAlign=middle;align=center;" parent="1" vertex="1">
          <mxGeometry x="125" y="20" width="260" height="40" as="geometry" />
        </mxCell>
        <mxCell id="C-2Z8SM-Xwla9t9jX8n9-122" value="" style="edgeStyle=orthogonalEdgeStyle;fontSize=12;html=1;endArrow=ERmandOne;startArrow=ERmandOne;rounded=0;endFill=0;startFill=0;" parent="1" source="C-2Z8SM-Xwla9t9jX8n9-8" target="C-2Z8SM-Xwla9t9jX8n9-13" edge="1">
          <mxGeometry width="100" height="100" relative="1" as="geometry">
            <mxPoint x="530" y="120" as="sourcePoint" />
            <mxPoint x="470" y="250" as="targetPoint" />
          </mxGeometry>
        </mxCell>
        <mxCell id="C-2Z8SM-Xwla9t9jX8n9-123" value="" style="edgeStyle=orthogonalEdgeStyle;fontSize=12;html=1;endArrow=ERoneToMany;startArrow=ERoneToMany;rounded=0;startFill=0;endFill=0;" parent="1" source="C-2Z8SM-Xwla9t9jX8n9-13" target="C-2Z8SM-Xwla9t9jX8n9-14" edge="1">
          <mxGeometry width="100" height="100" relative="1" as="geometry">
            <mxPoint x="630" y="460" as="sourcePoint" />
            <mxPoint x="730" y="360" as="targetPoint" />
          </mxGeometry>
        </mxCell>
        <mxCell id="C-2Z8SM-Xwla9t9jX8n9-124" value="" style="edgeStyle=elbowEdgeStyle;fontSize=12;html=1;endArrow=ERoneToMany;startArrow=ERmandOne;rounded=0;" parent="1" source="C-2Z8SM-Xwla9t9jX8n9-2" target="C-2Z8SM-Xwla9t9jX8n9-13" edge="1">
          <mxGeometry width="100" height="100" relative="1" as="geometry">
            <mxPoint x="-20" y="290" as="sourcePoint" />
            <mxPoint x="80" y="190" as="targetPoint" />
            <Array as="points">
              <mxPoint x="280" y="210" />
            </Array>
          </mxGeometry>
        </mxCell>
        <mxCell id="C-2Z8SM-Xwla9t9jX8n9-125" value="" style="edgeStyle=entityRelationEdgeStyle;fontSize=12;html=1;endArrow=ERoneToMany;startArrow=ERoneToMany;rounded=0;exitX=1;exitY=0.5;exitDx=0;exitDy=0;" parent="1" source="C-2Z8SM-Xwla9t9jX8n9-17" target="C-2Z8SM-Xwla9t9jX8n9-14" edge="1">
          <mxGeometry width="100" height="100" relative="1" as="geometry">
            <mxPoint x="830" y="350" as="sourcePoint" />
            <mxPoint x="930" y="250" as="targetPoint" />
          </mxGeometry>
        </mxCell>
        <mxCell id="C-2Z8SM-Xwla9t9jX8n9-127" value="" style="edgeStyle=entityRelationEdgeStyle;fontSize=12;html=1;endArrow=ERoneToMany;startArrow=ERoneToMany;rounded=0;exitX=1;exitY=0.75;exitDx=0;exitDy=0;startFill=0;endFill=0;" parent="1" source="C-2Z8SM-Xwla9t9jX8n9-13" target="C-2Z8SM-Xwla9t9jX8n9-17" edge="1">
          <mxGeometry width="100" height="100" relative="1" as="geometry">
            <mxPoint x="-70" y="540" as="sourcePoint" />
            <mxPoint x="30" y="440" as="targetPoint" />
          </mxGeometry>
        </mxCell>
        <mxCell id="C-2Z8SM-Xwla9t9jX8n9-129" value="" style="edgeStyle=elbowEdgeStyle;fontSize=12;html=1;endArrow=ERoneToMany;startArrow=ERoneToMany;rounded=0;entryX=0;entryY=0.75;entryDx=0;entryDy=0;exitX=1;exitY=0.75;exitDx=0;exitDy=0;" parent="1" source="C-2Z8SM-Xwla9t9jX8n9-15" target="C-2Z8SM-Xwla9t9jX8n9-13" edge="1">
          <mxGeometry width="100" height="100" relative="1" as="geometry">
            <mxPoint x="290" y="410" as="sourcePoint" />
            <mxPoint x="390" y="310" as="targetPoint" />
            <Array as="points">
              <mxPoint x="330" y="310" />
            </Array>
          </mxGeometry>
        </mxCell>
        <mxCell id="C-2Z8SM-Xwla9t9jX8n9-130" value="" style="fontSize=12;html=1;endArrow=ERoneToMany;startArrow=ERoneToMany;rounded=0;" parent="1" source="C-2Z8SM-Xwla9t9jX8n9-19" target="C-2Z8SM-Xwla9t9jX8n9-15" edge="1">
          <mxGeometry width="100" height="100" relative="1" as="geometry">
            <mxPoint x="20" y="560" as="sourcePoint" />
            <mxPoint x="120" y="460" as="targetPoint" />
          </mxGeometry>
        </mxCell>
        <mxCell id="C-2Z8SM-Xwla9t9jX8n9-131" value="" style="edgeStyle=elbowEdgeStyle;fontSize=12;html=1;endArrow=ERmandOne;startArrow=ERmandOne;rounded=0;exitX=1;exitY=0.25;exitDx=0;exitDy=0;" parent="1" source="C-2Z8SM-Xwla9t9jX8n9-15" target="C-2Z8SM-Xwla9t9jX8n9-20" edge="1">
          <mxGeometry width="100" height="100" relative="1" as="geometry">
            <mxPoint x="300" y="590" as="sourcePoint" />
            <mxPoint x="400" y="490" as="targetPoint" />
            <Array as="points">
              <mxPoint x="260" y="280" />
            </Array>
          </mxGeometry>
        </mxCell>
        <mxCell id="C-2Z8SM-Xwla9t9jX8n9-132" value="" style="edgeStyle=elbowEdgeStyle;fontSize=12;html=1;endArrow=ERoneToMany;startArrow=ERmandOne;rounded=0;exitX=1;exitY=0.25;exitDx=0;exitDy=0;elbow=vertical;endFill=0;" parent="1" source="C-2Z8SM-Xwla9t9jX8n9-19" target="C-2Z8SM-Xwla9t9jX8n9-18" edge="1">
          <mxGeometry width="100" height="100" relative="1" as="geometry">
            <mxPoint x="250" y="730" as="sourcePoint" />
            <mxPoint x="350" y="630" as="targetPoint" />
          </mxGeometry>
        </mxCell>
        <mxCell id="C-2Z8SM-Xwla9t9jX8n9-133" value="" style="fontSize=12;html=1;endArrow=ERmandOne;startArrow=ERmandOne;rounded=0;" parent="1" source="C-2Z8SM-Xwla9t9jX8n9-21" target="C-2Z8SM-Xwla9t9jX8n9-19" edge="1">
          <mxGeometry width="100" height="100" relative="1" as="geometry">
            <mxPoint x="190" y="830" as="sourcePoint" />
            <mxPoint x="110" y="970" as="targetPoint" />
          </mxGeometry>
        </mxCell>
        <mxCell id="C-2Z8SM-Xwla9t9jX8n9-134" value="" style="edgeStyle=elbowEdgeStyle;fontSize=12;html=1;endArrow=ERoneToMany;startArrow=ERmandOne;rounded=0;entryX=1;entryY=0.5;entryDx=0;entryDy=0;" parent="1" source="C-2Z8SM-Xwla9t9jX8n9-23" target="C-2Z8SM-Xwla9t9jX8n9-22" edge="1">
          <mxGeometry width="100" height="100" relative="1" as="geometry">
            <mxPoint x="550" y="1170" as="sourcePoint" />
            <mxPoint x="210" y="640" as="targetPoint" />
          </mxGeometry>
        </mxCell>
        <mxCell id="C-2Z8SM-Xwla9t9jX8n9-135" value="" style="edgeStyle=elbowEdgeStyle;fontSize=12;html=1;endArrow=ERmandOne;startArrow=ERmandOne;rounded=0;exitX=1;exitY=0.5;exitDx=0;exitDy=0;" parent="1" source="C-2Z8SM-Xwla9t9jX8n9-19" target="C-2Z8SM-Xwla9t9jX8n9-22" edge="1">
          <mxGeometry width="100" height="100" relative="1" as="geometry">
            <mxPoint x="310" y="740" as="sourcePoint" />
            <mxPoint x="210" y="1140" as="targetPoint" />
            <Array as="points">
              <mxPoint x="350" y="790" />
            </Array>
          </mxGeometry>
        </mxCell>
        <mxCell id="C-2Z8SM-Xwla9t9jX8n9-136" value="pozycja_faktura" style="rounded=0;whiteSpace=wrap;html=1;fillColor=#dae8fc;strokeColor=#6c8ebf;" parent="1" vertex="1">
          <mxGeometry x="680" y="520" width="100" height="40" as="geometry" />
        </mxCell>
        <mxCell id="C-2Z8SM-Xwla9t9jX8n9-137" value="liczba_szt" style="ellipse;whiteSpace=wrap;html=1;fillColor=#d5e8d4;strokeColor=#82b366;" parent="1" vertex="1">
          <mxGeometry x="645" y="580" width="75" height="40" as="geometry" />
        </mxCell>
        <mxCell id="C-2Z8SM-Xwla9t9jX8n9-138" value="cena_netto" style="ellipse;whiteSpace=wrap;html=1;fillColor=#d5e8d4;strokeColor=#82b366;" parent="1" vertex="1">
          <mxGeometry x="705" y="620" width="75" height="40" as="geometry" />
        </mxCell>
        <mxCell id="C-2Z8SM-Xwla9t9jX8n9-139" value="cena_brutto" style="ellipse;whiteSpace=wrap;html=1;fillColor=#d5e8d4;strokeColor=#82b366;" parent="1" vertex="1">
          <mxGeometry x="760" y="580" width="75" height="40" as="geometry" />
        </mxCell>
        <mxCell id="C-2Z8SM-Xwla9t9jX8n9-140" value="" style="edgeStyle=entityRelationEdgeStyle;fontSize=12;html=1;endArrow=ERoneToMany;startArrow=ERmandOne;rounded=0;entryX=0;entryY=0.5;entryDx=0;entryDy=0;exitX=1;exitY=0.25;exitDx=0;exitDy=0;" parent="1" source="C-2Z8SM-Xwla9t9jX8n9-18" target="C-2Z8SM-Xwla9t9jX8n9-136" edge="1">
          <mxGeometry width="100" height="100" relative="1" as="geometry">
            <mxPoint x="730" y="770" as="sourcePoint" />
            <mxPoint x="830" y="670" as="targetPoint" />
          </mxGeometry>
        </mxCell>
        <mxCell id="C-2Z8SM-Xwla9t9jX8n9-141" value="" style="endArrow=none;html=1;rounded=0;" parent="1" source="C-2Z8SM-Xwla9t9jX8n9-137" target="C-2Z8SM-Xwla9t9jX8n9-136" edge="1">
          <mxGeometry relative="1" as="geometry">
            <mxPoint x="620" y="690" as="sourcePoint" />
            <mxPoint x="780" y="690" as="targetPoint" />
          </mxGeometry>
        </mxCell>
        <mxCell id="C-2Z8SM-Xwla9t9jX8n9-142" value="" style="endArrow=none;html=1;rounded=0;" parent="1" source="C-2Z8SM-Xwla9t9jX8n9-138" target="C-2Z8SM-Xwla9t9jX8n9-136" edge="1">
          <mxGeometry relative="1" as="geometry">
            <mxPoint x="640" y="720" as="sourcePoint" />
            <mxPoint x="800" y="720" as="targetPoint" />
          </mxGeometry>
        </mxCell>
        <mxCell id="C-2Z8SM-Xwla9t9jX8n9-143" value="" style="endArrow=none;html=1;rounded=0;" parent="1" source="C-2Z8SM-Xwla9t9jX8n9-136" target="C-2Z8SM-Xwla9t9jX8n9-139" edge="1">
          <mxGeometry relative="1" as="geometry">
            <mxPoint x="650" y="700" as="sourcePoint" />
            <mxPoint x="810" y="700" as="targetPoint" />
          </mxGeometry>
        </mxCell>
        <mxCell id="C-2Z8SM-Xwla9t9jX8n9-144" value="" style="edgeStyle=elbowEdgeStyle;fontSize=12;html=1;endArrow=ERmandOne;startArrow=ERmandOne;rounded=0;exitX=0.25;exitY=0;exitDx=0;exitDy=0;entryX=0.75;entryY=1;entryDx=0;entryDy=0;elbow=vertical;" parent="1" source="C-2Z8SM-Xwla9t9jX8n9-136" target="C-2Z8SM-Xwla9t9jX8n9-13" edge="1">
          <mxGeometry width="100" height="100" relative="1" as="geometry">
            <mxPoint x="730" y="540" as="sourcePoint" />
            <mxPoint x="830" y="440" as="targetPoint" />
            <Array as="points">
              <mxPoint x="620" y="450" />
              <mxPoint x="620" y="490" />
            </Array>
          </mxGeometry>
        </mxCell>
        <mxCell id="3W6_3P-Yo86vGuyEI3Ee-1" value="" style="edgeStyle=entityRelationEdgeStyle;fontSize=12;html=1;endArrow=ERmandOne;startArrow=ERmandOne;rounded=0;entryX=0;entryY=0.25;entryDx=0;entryDy=0;" edge="1" parent="1" source="C-2Z8SM-Xwla9t9jX8n9-21" target="C-2Z8SM-Xwla9t9jX8n9-23">
          <mxGeometry width="100" height="100" relative="1" as="geometry">
            <mxPoint x="-20" y="1120" as="sourcePoint" />
            <mxPoint x="80" y="1020" as="targetPoint" />
          </mxGeometry>
        </mxCell>
      </root>
    </mxGraphModel>
  </diagram>
</mxfile>
